<mxfile host="app.diagrams.net" modified="2024-04-01T00:13:44.438Z" agent="Mozilla/5.0 (Windows NT 10.0; Win64; x64) AppleWebKit/537.36 (KHTML, like Gecko) Chrome/123.0.0.0 Safari/537.36" etag="_DbM8PF-N4l3eBRa0IK4" version="24.2.1" type="device">
  <diagram name="Страница — 1" id="_bHKrdel1OFoKZBqirBX">
    <mxGraphModel dx="2165" dy="1877" grid="1" gridSize="10" guides="1" tooltips="1" connect="1" arrows="1" fold="1" page="1" pageScale="1" pageWidth="827" pageHeight="1169" math="0" shadow="0">
      <root>
        <mxCell id="0" />
        <mxCell id="1" parent="0" />
        <mxCell id="GxsNpKUkP6gUNd9w4FIH-8" style="edgeStyle=orthogonalEdgeStyle;rounded=0;orthogonalLoop=1;jettySize=auto;html=1;exitX=0.5;exitY=1;exitDx=0;exitDy=0;" parent="1" source="GxsNpKUkP6gUNd9w4FIH-1" target="GxsNpKUkP6gUNd9w4FIH-2" edge="1">
          <mxGeometry relative="1" as="geometry" />
        </mxCell>
        <mxCell id="GxsNpKUkP6gUNd9w4FIH-1" value="" style="ellipse;html=1;shape=endState;fillColor=#000000;strokeColor=none;" parent="1" vertex="1">
          <mxGeometry x="385" y="26" width="30" height="30" as="geometry" />
        </mxCell>
        <mxCell id="GxsNpKUkP6gUNd9w4FIH-5" style="edgeStyle=orthogonalEdgeStyle;rounded=1;orthogonalLoop=1;jettySize=auto;html=1;exitX=1;exitY=0.5;exitDx=0;exitDy=0;entryX=0.5;entryY=0;entryDx=0;entryDy=0;curved=0;" parent="1" source="GxsNpKUkP6gUNd9w4FIH-2" target="GxsNpKUkP6gUNd9w4FIH-3" edge="1">
          <mxGeometry relative="1" as="geometry" />
        </mxCell>
        <mxCell id="GxsNpKUkP6gUNd9w4FIH-7" style="edgeStyle=orthogonalEdgeStyle;rounded=1;orthogonalLoop=1;jettySize=auto;html=1;exitX=0;exitY=0.5;exitDx=0;exitDy=0;curved=0;entryX=0.374;entryY=0.62;entryDx=0;entryDy=0;entryPerimeter=0;" parent="1" source="GxsNpKUkP6gUNd9w4FIH-2" target="GxsNpKUkP6gUNd9w4FIH-21" edge="1">
          <mxGeometry relative="1" as="geometry">
            <mxPoint x="120" y="230" as="targetPoint" />
            <Array as="points">
              <mxPoint x="118" y="115" />
            </Array>
          </mxGeometry>
        </mxCell>
        <mxCell id="GxsNpKUkP6gUNd9w4FIH-2" value="" style="shape=rhombus;perimeter=rhombusPerimeter;whiteSpace=wrap;html=1;align=center;" parent="1" vertex="1">
          <mxGeometry x="340" y="90" width="120" height="50" as="geometry" />
        </mxCell>
        <mxCell id="GxsNpKUkP6gUNd9w4FIH-18" style="edgeStyle=orthogonalEdgeStyle;rounded=0;orthogonalLoop=1;jettySize=auto;html=1;exitX=0.5;exitY=1;exitDx=0;exitDy=0;" parent="1" source="GxsNpKUkP6gUNd9w4FIH-3" target="GxsNpKUkP6gUNd9w4FIH-12" edge="1">
          <mxGeometry relative="1" as="geometry" />
        </mxCell>
        <mxCell id="GxsNpKUkP6gUNd9w4FIH-3" value="Форма регистрации" style="whiteSpace=wrap;html=1;align=center;" parent="1" vertex="1">
          <mxGeometry x="590" y="140" width="120" height="40" as="geometry" />
        </mxCell>
        <mxCell id="GxsNpKUkP6gUNd9w4FIH-37" style="edgeStyle=orthogonalEdgeStyle;rounded=0;orthogonalLoop=1;jettySize=auto;html=1;exitX=0.5;exitY=1;exitDx=0;exitDy=0;entryX=0.5;entryY=0;entryDx=0;entryDy=0;" parent="1" source="GxsNpKUkP6gUNd9w4FIH-6" target="GxsNpKUkP6gUNd9w4FIH-36" edge="1">
          <mxGeometry relative="1" as="geometry" />
        </mxCell>
        <mxCell id="GxsNpKUkP6gUNd9w4FIH-6" value="Форма авторизации" style="whiteSpace=wrap;html=1;align=center;" parent="1" vertex="1">
          <mxGeometry x="70" y="340" width="120" height="40" as="geometry" />
        </mxCell>
        <mxCell id="GxsNpKUkP6gUNd9w4FIH-9" value="Если аккаунт отсутствует&amp;nbsp;" style="text;html=1;align=center;verticalAlign=middle;whiteSpace=wrap;rounded=0;" parent="1" vertex="1">
          <mxGeometry x="470" y="90" width="150" height="30" as="geometry" />
        </mxCell>
        <mxCell id="GxsNpKUkP6gUNd9w4FIH-11" value="Зарегистрированный пользователь" style="text;html=1;align=center;verticalAlign=middle;whiteSpace=wrap;rounded=0;" parent="1" vertex="1">
          <mxGeometry x="130" y="90" width="210" height="30" as="geometry" />
        </mxCell>
        <mxCell id="GxsNpKUkP6gUNd9w4FIH-24" style="edgeStyle=orthogonalEdgeStyle;rounded=1;orthogonalLoop=1;jettySize=auto;html=1;exitX=1;exitY=0.5;exitDx=0;exitDy=0;curved=0;" parent="1" source="GxsNpKUkP6gUNd9w4FIH-12" target="GxsNpKUkP6gUNd9w4FIH-20" edge="1">
          <mxGeometry relative="1" as="geometry" />
        </mxCell>
        <mxCell id="GxsNpKUkP6gUNd9w4FIH-12" value="Ответ" style="shape=rhombus;perimeter=rhombusPerimeter;whiteSpace=wrap;html=1;align=center;" parent="1" vertex="1">
          <mxGeometry x="590" y="230" width="120" height="60" as="geometry" />
        </mxCell>
        <mxCell id="GxsNpKUkP6gUNd9w4FIH-17" value="Читатель" style="text;html=1;align=center;verticalAlign=middle;whiteSpace=wrap;rounded=0;" parent="1" vertex="1">
          <mxGeometry x="370" y="-4" width="60" height="30" as="geometry" />
        </mxCell>
        <mxCell id="GxsNpKUkP6gUNd9w4FIH-29" style="edgeStyle=orthogonalEdgeStyle;rounded=0;orthogonalLoop=1;jettySize=auto;html=1;exitX=0.5;exitY=1;exitDx=0;exitDy=0;entryX=0.5;entryY=0;entryDx=0;entryDy=0;" parent="1" source="GxsNpKUkP6gUNd9w4FIH-20" target="GxsNpKUkP6gUNd9w4FIH-28" edge="1">
          <mxGeometry relative="1" as="geometry" />
        </mxCell>
        <mxCell id="GxsNpKUkP6gUNd9w4FIH-20" value="Сообщение с причиной отказа" style="whiteSpace=wrap;html=1;align=center;" parent="1" vertex="1">
          <mxGeometry x="730" y="330" width="100" height="40" as="geometry" />
        </mxCell>
        <mxCell id="GxsNpKUkP6gUNd9w4FIH-21" value="" style="line;strokeWidth=4;rotatable=0;dashed=0;labelPosition=right;align=left;verticalAlign=middle;spacingTop=0;spacingLeft=6;points=[];portConstraint=eastwest;" parent="1" vertex="1">
          <mxGeometry x="75" y="290" width="115" height="10" as="geometry" />
        </mxCell>
        <mxCell id="GxsNpKUkP6gUNd9w4FIH-22" style="edgeStyle=orthogonalEdgeStyle;rounded=1;orthogonalLoop=1;jettySize=auto;html=1;exitX=0;exitY=0.5;exitDx=0;exitDy=0;entryX=0.59;entryY=0.38;entryDx=0;entryDy=0;entryPerimeter=0;curved=0;" parent="1" source="GxsNpKUkP6gUNd9w4FIH-12" target="GxsNpKUkP6gUNd9w4FIH-21" edge="1">
          <mxGeometry relative="1" as="geometry">
            <Array as="points">
              <mxPoint x="143" y="260" />
            </Array>
          </mxGeometry>
        </mxCell>
        <mxCell id="GxsNpKUkP6gUNd9w4FIH-23" value="Согласие" style="text;html=1;align=center;verticalAlign=middle;whiteSpace=wrap;rounded=0;" parent="1" vertex="1">
          <mxGeometry x="344" y="234" width="60" height="30" as="geometry" />
        </mxCell>
        <mxCell id="GxsNpKUkP6gUNd9w4FIH-25" value="Отказ" style="text;html=1;align=center;verticalAlign=middle;whiteSpace=wrap;rounded=0;" parent="1" vertex="1">
          <mxGeometry x="720" y="234" width="60" height="30" as="geometry" />
        </mxCell>
        <mxCell id="GxsNpKUkP6gUNd9w4FIH-26" value="" style="endArrow=classic;html=1;rounded=0;exitX=0.485;exitY=0.38;exitDx=0;exitDy=0;exitPerimeter=0;entryX=0.5;entryY=0;entryDx=0;entryDy=0;" parent="1" source="GxsNpKUkP6gUNd9w4FIH-21" target="GxsNpKUkP6gUNd9w4FIH-6" edge="1">
          <mxGeometry width="50" height="50" relative="1" as="geometry">
            <mxPoint x="130" y="350" as="sourcePoint" />
            <mxPoint x="180" y="300" as="targetPoint" />
          </mxGeometry>
        </mxCell>
        <mxCell id="GxsNpKUkP6gUNd9w4FIH-27" value="" style="ellipse;html=1;shape=endState;fillColor=#000000;strokeColor=#000000;" parent="1" vertex="1">
          <mxGeometry x="765" y="585" width="30" height="30" as="geometry" />
        </mxCell>
        <mxCell id="GxsNpKUkP6gUNd9w4FIH-32" style="edgeStyle=orthogonalEdgeStyle;rounded=1;orthogonalLoop=1;jettySize=auto;html=1;exitX=1;exitY=0.5;exitDx=0;exitDy=0;entryX=1;entryY=0.5;entryDx=0;entryDy=0;curved=0;" parent="1" source="GxsNpKUkP6gUNd9w4FIH-28" target="GxsNpKUkP6gUNd9w4FIH-3" edge="1">
          <mxGeometry relative="1" as="geometry" />
        </mxCell>
        <mxCell id="GxsNpKUkP6gUNd9w4FIH-34" style="edgeStyle=orthogonalEdgeStyle;rounded=0;orthogonalLoop=1;jettySize=auto;html=1;exitX=0.5;exitY=1;exitDx=0;exitDy=0;entryX=0.5;entryY=0;entryDx=0;entryDy=0;" parent="1" source="GxsNpKUkP6gUNd9w4FIH-28" target="GxsNpKUkP6gUNd9w4FIH-33" edge="1">
          <mxGeometry relative="1" as="geometry" />
        </mxCell>
        <mxCell id="GxsNpKUkP6gUNd9w4FIH-28" value="" style="shape=rhombus;perimeter=rhombusPerimeter;whiteSpace=wrap;html=1;align=center;" parent="1" vertex="1">
          <mxGeometry x="720" y="410" width="120" height="60" as="geometry" />
        </mxCell>
        <mxCell id="GxsNpKUkP6gUNd9w4FIH-31" value="Новое заполнение" style="text;html=1;align=center;verticalAlign=middle;whiteSpace=wrap;rounded=0;rotation=0;" parent="1" vertex="1">
          <mxGeometry x="860" y="280" width="80" height="30" as="geometry" />
        </mxCell>
        <mxCell id="GxsNpKUkP6gUNd9w4FIH-35" style="edgeStyle=orthogonalEdgeStyle;rounded=0;orthogonalLoop=1;jettySize=auto;html=1;exitX=0.5;exitY=1;exitDx=0;exitDy=0;entryX=0.5;entryY=0;entryDx=0;entryDy=0;" parent="1" source="GxsNpKUkP6gUNd9w4FIH-33" target="GxsNpKUkP6gUNd9w4FIH-27" edge="1">
          <mxGeometry relative="1" as="geometry" />
        </mxCell>
        <mxCell id="GxsNpKUkP6gUNd9w4FIH-33" value="Сообщение с подтверждением выхода из системы" style="rounded=0;whiteSpace=wrap;html=1;" parent="1" vertex="1">
          <mxGeometry x="685" y="510" width="190" height="40" as="geometry" />
        </mxCell>
        <mxCell id="GxsNpKUkP6gUNd9w4FIH-39" style="edgeStyle=orthogonalEdgeStyle;rounded=1;orthogonalLoop=1;jettySize=auto;html=1;exitX=1;exitY=0.5;exitDx=0;exitDy=0;entryX=0.5;entryY=0;entryDx=0;entryDy=0;curved=0;" parent="1" source="GxsNpKUkP6gUNd9w4FIH-36" target="GxsNpKUkP6gUNd9w4FIH-38" edge="1">
          <mxGeometry relative="1" as="geometry" />
        </mxCell>
        <mxCell id="GxsNpKUkP6gUNd9w4FIH-36" value="" style="shape=rhombus;perimeter=rhombusPerimeter;whiteSpace=wrap;html=1;align=center;" parent="1" vertex="1">
          <mxGeometry x="70" y="440" width="120" height="60" as="geometry" />
        </mxCell>
        <mxCell id="GxsNpKUkP6gUNd9w4FIH-54" style="edgeStyle=orthogonalEdgeStyle;rounded=0;orthogonalLoop=1;jettySize=auto;html=1;exitX=0.5;exitY=1;exitDx=0;exitDy=0;" parent="1" source="GxsNpKUkP6gUNd9w4FIH-38" target="GxsNpKUkP6gUNd9w4FIH-52" edge="1">
          <mxGeometry relative="1" as="geometry" />
        </mxCell>
        <mxCell id="GxsNpKUkP6gUNd9w4FIH-38" value="Вывод списка заказов" style="whiteSpace=wrap;html=1;align=center;" parent="1" vertex="1">
          <mxGeometry x="290" y="510" width="130" height="40" as="geometry" />
        </mxCell>
        <mxCell id="GxsNpKUkP6gUNd9w4FIH-46" style="edgeStyle=orthogonalEdgeStyle;rounded=0;orthogonalLoop=1;jettySize=auto;html=1;exitX=0.5;exitY=1;exitDx=0;exitDy=0;entryX=0.5;entryY=0;entryDx=0;entryDy=0;" parent="1" source="GxsNpKUkP6gUNd9w4FIH-41" target="GxsNpKUkP6gUNd9w4FIH-43" edge="1">
          <mxGeometry relative="1" as="geometry" />
        </mxCell>
        <mxCell id="GxsNpKUkP6gUNd9w4FIH-41" value="Вывод полученных ответов" style="whiteSpace=wrap;html=1;align=center;" parent="1" vertex="1">
          <mxGeometry x="-300" y="530" width="170" height="40" as="geometry" />
        </mxCell>
        <mxCell id="GxsNpKUkP6gUNd9w4FIH-44" style="edgeStyle=orthogonalEdgeStyle;rounded=1;orthogonalLoop=1;jettySize=auto;html=1;exitX=1;exitY=0.5;exitDx=0;exitDy=0;entryX=0.5;entryY=1;entryDx=0;entryDy=0;curved=0;" parent="1" source="GxsNpKUkP6gUNd9w4FIH-43" target="GxsNpKUkP6gUNd9w4FIH-36" edge="1">
          <mxGeometry relative="1" as="geometry" />
        </mxCell>
        <mxCell id="GxsNpKUkP6gUNd9w4FIH-48" style="edgeStyle=orthogonalEdgeStyle;rounded=1;orthogonalLoop=1;jettySize=auto;html=1;exitX=0;exitY=0.5;exitDx=0;exitDy=0;curved=0;" parent="1" source="GxsNpKUkP6gUNd9w4FIH-43" target="GxsNpKUkP6gUNd9w4FIH-47" edge="1">
          <mxGeometry relative="1" as="geometry" />
        </mxCell>
        <mxCell id="GxsNpKUkP6gUNd9w4FIH-43" value="" style="shape=rhombus;perimeter=rhombusPerimeter;whiteSpace=wrap;html=1;align=center;" parent="1" vertex="1">
          <mxGeometry x="-275" y="600" width="120" height="60" as="geometry" />
        </mxCell>
        <mxCell id="GxsNpKUkP6gUNd9w4FIH-45" value="Возврат" style="text;html=1;align=center;verticalAlign=middle;whiteSpace=wrap;rounded=0;" parent="1" vertex="1">
          <mxGeometry x="30" y="604" width="60" height="30" as="geometry" />
        </mxCell>
        <mxCell id="GxsNpKUkP6gUNd9w4FIH-51" style="edgeStyle=orthogonalEdgeStyle;rounded=0;orthogonalLoop=1;jettySize=auto;html=1;exitX=0.5;exitY=1;exitDx=0;exitDy=0;entryX=0.5;entryY=0;entryDx=0;entryDy=0;" parent="1" source="GxsNpKUkP6gUNd9w4FIH-47" target="GxsNpKUkP6gUNd9w4FIH-49" edge="1">
          <mxGeometry relative="1" as="geometry" />
        </mxCell>
        <mxCell id="GxsNpKUkP6gUNd9w4FIH-47" value="Сообщение с подтверждением выхода из системы" style="rounded=0;whiteSpace=wrap;html=1;" parent="1" vertex="1">
          <mxGeometry x="-480" y="680" width="190" height="40" as="geometry" />
        </mxCell>
        <mxCell id="GxsNpKUkP6gUNd9w4FIH-49" value="" style="ellipse;html=1;shape=endState;fillColor=#000000;strokeColor=#000000;" parent="1" vertex="1">
          <mxGeometry x="-400" y="750" width="30" height="30" as="geometry" />
        </mxCell>
        <mxCell id="GxsNpKUkP6gUNd9w4FIH-53" style="edgeStyle=orthogonalEdgeStyle;rounded=1;orthogonalLoop=1;jettySize=auto;html=1;exitX=1;exitY=0.5;exitDx=0;exitDy=0;entryX=1;entryY=0.5;entryDx=0;entryDy=0;curved=0;" parent="1" source="GxsNpKUkP6gUNd9w4FIH-52" target="GxsNpKUkP6gUNd9w4FIH-38" edge="1">
          <mxGeometry relative="1" as="geometry" />
        </mxCell>
        <mxCell id="GxsNpKUkP6gUNd9w4FIH-60" style="edgeStyle=orthogonalEdgeStyle;rounded=1;orthogonalLoop=1;jettySize=auto;html=1;exitX=0;exitY=0.5;exitDx=0;exitDy=0;curved=0;" parent="1" source="GxsNpKUkP6gUNd9w4FIH-52" target="GxsNpKUkP6gUNd9w4FIH-58" edge="1">
          <mxGeometry relative="1" as="geometry" />
        </mxCell>
        <mxCell id="GxsNpKUkP6gUNd9w4FIH-52" value="" style="shape=rhombus;perimeter=rhombusPerimeter;whiteSpace=wrap;html=1;align=center;" parent="1" vertex="1">
          <mxGeometry x="295" y="610" width="120" height="50" as="geometry" />
        </mxCell>
        <mxCell id="GxsNpKUkP6gUNd9w4FIH-55" value="Заказ не найден" style="text;html=1;align=center;verticalAlign=middle;whiteSpace=wrap;rounded=0;rotation=0;" parent="1" vertex="1">
          <mxGeometry x="440" y="560" width="45" height="30" as="geometry" />
        </mxCell>
        <mxCell id="GxsNpKUkP6gUNd9w4FIH-62" style="edgeStyle=orthogonalEdgeStyle;rounded=0;orthogonalLoop=1;jettySize=auto;html=1;exitX=0.5;exitY=1;exitDx=0;exitDy=0;" parent="1" source="GxsNpKUkP6gUNd9w4FIH-58" target="GxsNpKUkP6gUNd9w4FIH-61" edge="1">
          <mxGeometry relative="1" as="geometry" />
        </mxCell>
        <mxCell id="GxsNpKUkP6gUNd9w4FIH-58" value="Вывод подробной информации о заказе" style="whiteSpace=wrap;html=1;align=center;" parent="1" vertex="1">
          <mxGeometry x="180" y="700" width="150" height="40" as="geometry" />
        </mxCell>
        <mxCell id="GxsNpKUkP6gUNd9w4FIH-65" style="edgeStyle=orthogonalEdgeStyle;rounded=1;orthogonalLoop=1;jettySize=auto;html=1;exitX=0;exitY=0.5;exitDx=0;exitDy=0;curved=0;" parent="1" source="GxsNpKUkP6gUNd9w4FIH-61" target="GxsNpKUkP6gUNd9w4FIH-63" edge="1">
          <mxGeometry relative="1" as="geometry" />
        </mxCell>
        <mxCell id="GxsNpKUkP6gUNd9w4FIH-66" style="edgeStyle=orthogonalEdgeStyle;rounded=1;orthogonalLoop=1;jettySize=auto;html=1;exitX=1;exitY=0.5;exitDx=0;exitDy=0;curved=0;" parent="1" source="GxsNpKUkP6gUNd9w4FIH-61" target="GxsNpKUkP6gUNd9w4FIH-64" edge="1">
          <mxGeometry relative="1" as="geometry" />
        </mxCell>
        <mxCell id="GxsNpKUkP6gUNd9w4FIH-61" value="" style="shape=rhombus;perimeter=rhombusPerimeter;whiteSpace=wrap;html=1;align=center;" parent="1" vertex="1">
          <mxGeometry x="195" y="780" width="120" height="60" as="geometry" />
        </mxCell>
        <mxCell id="GxsNpKUkP6gUNd9w4FIH-63" value="Форма для отзывов" style="whiteSpace=wrap;html=1;align=center;" parent="1" vertex="1">
          <mxGeometry x="10" y="790" width="145" height="40" as="geometry" />
        </mxCell>
        <mxCell id="GxsNpKUkP6gUNd9w4FIH-64" value="Код&amp;nbsp;&lt;span style=&quot;background-color: initial;&quot;&gt;для получения книги&lt;/span&gt;" style="whiteSpace=wrap;html=1;align=center;" parent="1" vertex="1">
          <mxGeometry x="370" y="880" width="145" height="40" as="geometry" />
        </mxCell>
        <mxCell id="GxsNpKUkP6gUNd9w4FIH-73" style="edgeStyle=orthogonalEdgeStyle;rounded=0;orthogonalLoop=1;jettySize=auto;html=1;exitX=0.447;exitY=1.033;exitDx=0;exitDy=0;exitPerimeter=0;" parent="1" source="GxsNpKUkP6gUNd9w4FIH-67" target="GxsNpKUkP6gUNd9w4FIH-69" edge="1">
          <mxGeometry relative="1" as="geometry" />
        </mxCell>
        <mxCell id="GxsNpKUkP6gUNd9w4FIH-67" value="Сообщение с подтверждением выхода из системы" style="rounded=0;whiteSpace=wrap;html=1;" parent="1" vertex="1">
          <mxGeometry x="170" y="930" width="190" height="40" as="geometry" />
        </mxCell>
        <mxCell id="GxsNpKUkP6gUNd9w4FIH-68" style="edgeStyle=orthogonalEdgeStyle;rounded=0;orthogonalLoop=1;jettySize=auto;html=1;exitX=0.5;exitY=1;exitDx=0;exitDy=0;entryX=0.452;entryY=0.071;entryDx=0;entryDy=0;entryPerimeter=0;" parent="1" source="GxsNpKUkP6gUNd9w4FIH-61" target="GxsNpKUkP6gUNd9w4FIH-67" edge="1">
          <mxGeometry relative="1" as="geometry" />
        </mxCell>
        <mxCell id="mcA3QcW7Vf8vDJalAbuw-1" value="" style="edgeStyle=orthogonalEdgeStyle;rounded=0;orthogonalLoop=1;jettySize=auto;html=1;entryX=0.451;entryY=0.975;entryDx=0;entryDy=0;entryPerimeter=0;" parent="1" source="GxsNpKUkP6gUNd9w4FIH-69" target="GxsNpKUkP6gUNd9w4FIH-67" edge="1">
          <mxGeometry relative="1" as="geometry" />
        </mxCell>
        <mxCell id="GxsNpKUkP6gUNd9w4FIH-69" value="" style="ellipse;html=1;shape=endState;fillColor=#000000;strokeColor=#000000;" parent="1" vertex="1">
          <mxGeometry x="240" y="1060" width="30" height="30" as="geometry" />
        </mxCell>
        <mxCell id="GxsNpKUkP6gUNd9w4FIH-74" value="" style="line;strokeWidth=4;rotatable=0;dashed=0;labelPosition=right;align=left;verticalAlign=middle;spacingTop=0;spacingLeft=6;points=[];portConstraint=eastwest;direction=south;" parent="1" vertex="1">
          <mxGeometry x="-80" y="427.5" width="10" height="115" as="geometry" />
        </mxCell>
        <mxCell id="GxsNpKUkP6gUNd9w4FIH-76" style="edgeStyle=orthogonalEdgeStyle;rounded=0;orthogonalLoop=1;jettySize=auto;html=1;exitX=0;exitY=0.5;exitDx=0;exitDy=0;entryX=0.377;entryY=0.743;entryDx=0;entryDy=0;entryPerimeter=0;" parent="1" source="GxsNpKUkP6gUNd9w4FIH-36" target="GxsNpKUkP6gUNd9w4FIH-74" edge="1">
          <mxGeometry relative="1" as="geometry" />
        </mxCell>
        <mxCell id="GxsNpKUkP6gUNd9w4FIH-77" style="edgeStyle=orthogonalEdgeStyle;rounded=1;orthogonalLoop=1;jettySize=auto;html=1;exitX=0.5;exitY=1;exitDx=0;exitDy=0;entryX=0.506;entryY=0.629;entryDx=0;entryDy=0;entryPerimeter=0;curved=0;" parent="1" source="GxsNpKUkP6gUNd9w4FIH-63" target="GxsNpKUkP6gUNd9w4FIH-74" edge="1">
          <mxGeometry relative="1" as="geometry" />
        </mxCell>
        <mxCell id="GxsNpKUkP6gUNd9w4FIH-78" style="edgeStyle=orthogonalEdgeStyle;rounded=1;orthogonalLoop=1;jettySize=auto;html=1;exitX=0.5;exitY=1;exitDx=0;exitDy=0;entryX=0.745;entryY=0.514;entryDx=0;entryDy=0;entryPerimeter=0;curved=0;" parent="1" source="GxsNpKUkP6gUNd9w4FIH-64" target="GxsNpKUkP6gUNd9w4FIH-74" edge="1">
          <mxGeometry relative="1" as="geometry">
            <Array as="points">
              <mxPoint x="443" y="1130" />
              <mxPoint x="-50" y="1130" />
              <mxPoint x="-50" y="513" />
            </Array>
          </mxGeometry>
        </mxCell>
        <mxCell id="GxsNpKUkP6gUNd9w4FIH-79" value="" style="endArrow=classic;html=1;rounded=1;entryX=0.5;entryY=0;entryDx=0;entryDy=0;exitX=0.486;exitY=0.4;exitDx=0;exitDy=0;exitPerimeter=0;curved=0;" parent="1" source="GxsNpKUkP6gUNd9w4FIH-74" target="GxsNpKUkP6gUNd9w4FIH-41" edge="1">
          <mxGeometry width="50" height="50" relative="1" as="geometry">
            <mxPoint x="-200" y="510" as="sourcePoint" />
            <mxPoint x="-150" y="460" as="targetPoint" />
            <Array as="points">
              <mxPoint x="-215" y="483" />
            </Array>
          </mxGeometry>
        </mxCell>
        <mxCell id="QR8-N7RkEIq-3wtXb1vp-1" value="Заказ найден" style="text;html=1;align=center;verticalAlign=middle;whiteSpace=wrap;rounded=0;rotation=0;" vertex="1" parent="1">
          <mxGeometry x="253" y="596" width="45" height="30" as="geometry" />
        </mxCell>
      </root>
    </mxGraphModel>
  </diagram>
</mxfile>
